<svg width="331" height="267" viewBox="0 0 331 267" fill="none" xmlns="http://www.w3.org/2000/svg">
<ellipse cx="155.363" cy="161.497" rx="103.5" ry="105.5" fill="#D1DDBF"/>
<path d="M220.663 19.9966C219.484 14.1199 212.972 11.1204 209.863 10.3552C217.324 8.51875 220.826 14.1811 221.644 17.2419C229.892 12.8344 235.226 15.7115 236.863 17.701C230.579 15.8646 223.444 18.4662 220.663 19.9966Z" fill="#D1DDBF"/>
<path d="M145.712 121.364L134.731 138.57L155.794 162.696H177.034L196.836 138.162L184.578 121.364H145.712Z" fill="#3F4553"/>
<path d="M134.731 138.57C134.731 138.57 87.4903 142.093 75.6399 154.026C63.7894 165.96 69.3647 178.917 80.9076 178.917C102.155 178.917 147.112 180.17 168.383 178.917L169.652 150.978L134.731 138.57Z" fill="#3F4553"/>
<path d="M195.613 137.977C195.613 137.977 245.084 142.093 256.934 154.026C268.785 165.96 261.956 173.866 251.667 178.917C237.186 186.029 184.993 184.85 157.924 176.21L162.93 150.978L195.613 137.977Z" fill="#3F4553"/>
<path d="M197.79 161.413L194.444 153.077L198.612 151.29C198.612 151.29 198.036 146.358 203.134 145.408C208.233 144.459 214.308 147.633 220.229 145.075C225.689 142.716 232.372 140.543 238.609 143.806C239.532 144.288 239.962 145.349 239.647 146.313L239.624 146.387C239.309 147.359 238.324 147.96 237.271 147.856C235.071 147.641 231.149 147.685 227.274 149.947C220.591 153.863 197.79 161.413 197.79 161.413Z" fill="#FEBBA0"/>
<path d="M236.709 161.888C236.709 161.888 203.696 156.229 134.154 155.354L127.441 164.135C127.441 164.135 144.743 173.673 160.985 177.122C177.226 180.571 233.295 191.429 258.334 174.704L236.709 161.888Z" fill="#3F4553"/>
<path d="M160.985 177.129C144.336 173.421 126.918 163.913 126.918 163.913L127.956 162.214" stroke="#6E758F" stroke-width="1.5925" stroke-miterlimit="10" stroke-linecap="round"/>
<path d="M134.154 155.354C134.154 155.354 210.555 153.67 230.942 165.077" stroke="#6E758F" stroke-width="1.5925" stroke-miterlimit="10" stroke-linecap="round"/>
<path d="M96.6493 160.13C96.6493 160.13 110.599 153.826 120.135 157.957" stroke="#6E758F" stroke-width="1.5925" stroke-miterlimit="10" stroke-linecap="round"/>
<path d="M129.048 162.682L134.146 155.191L129.048 152.528C129.048 152.528 127.264 148.219 122.265 146.884C117.259 145.557 113.698 147.7 108 144.704C102.748 141.937 96.2571 139.275 89.782 142.056C88.8284 142.464 88.3055 143.487 88.5439 144.474L88.5593 144.548C88.7977 145.542 89.7282 146.209 90.7817 146.187C92.9888 146.135 96.9031 146.476 100.579 149.028C106.923 153.433 129.048 162.682 129.048 162.682Z" fill="#FEBBA0"/>
<path d="M172.943 155.621L193.829 153.641" stroke="#6E758F" stroke-width="1.5925" stroke-miterlimit="10" stroke-linecap="round"/>
<path d="M146.381 146.892L158.032 155.028" stroke="#6E758F" stroke-width="1.5925" stroke-miterlimit="10" stroke-linecap="round"/>
<path d="M143.374 36.1686C143.866 40.8114 148.057 44.1934 152.733 43.7335C157.409 43.2737 160.8 39.1352 160.308 34.4998C159.816 29.857 155.625 26.475 150.949 26.9349C146.281 27.3873 142.89 31.5258 143.374 36.1686Z" fill="#3F4553"/>
<path d="M160.839 39.5432C160.839 39.5432 145.981 37.3775 143.643 23.857C141.583 11.9087 149.896 2.33386 159.008 0.679947C159.016 0.679947 180.91 33.2242 160.839 39.5432Z" fill="#3F4553"/>
<path d="M161.177 1.96303C160.085 2.48219 159.047 3.16452 158.101 4.0471C149.634 11.9013 154.994 27.1499 162.577 34.0326C166.775 37.8373 172.912 39.6099 178.272 37.6667C186.108 34.8262 188.561 26.2674 186.97 18.6431C185.785 12.9619 182.517 7.59968 177.695 4.26219C172.874 0.932114 166.36 -0.477048 161.177 1.96303Z" fill="#FDBCA0"/>
<path d="M159.77 29.4343C158.285 30.8509 155.702 31.4294 153.718 30.7544C151.733 30.0795 150.103 28.2773 149.588 26.1858C149.127 24.3094 149.626 22.1734 151.057 21.0238C152.487 19.8742 155.063 19.9484 156.286 21.4391L159.77 29.4343Z" fill="#FDBCA0"/>
<path d="M157.601 24.4503L159.162 51.4024C159.37 56.3863 163.561 60.3468 168.729 60.4432C174.696 60.5619 179.379 55.5334 178.618 49.8226L175.465 24.7989L157.601 24.4503Z" fill="#FDBCA0"/>
<path d="M177.588 41.694L177.195 38.0005C177.195 38.0005 169.505 40.2774 162.577 34.0252C162.577 34.0326 166.568 41.0562 177.588 41.694Z" fill="#DF8370"/>
<path d="M154.548 20.3785C164.561 19.8816 173.696 13.3995 178.741 5.04835C178.741 5.04835 169.528 -3.38437 156.063 1.5477C144.905 5.62685 154.548 20.3785 154.548 20.3785Z" fill="#3F4553"/>
<path d="M155.648 26.5789C154.494 26.6901 153.487 26.0894 153.395 25.2364C153.325 24.5912 153.794 23.9905 154.517 23.679" stroke="#444359" stroke-width="1.1144" stroke-miterlimit="10" stroke-linecap="round"/>
<path d="M179.702 24.4725C179.933 23.7976 180.333 23.2636 180.779 22.7593L180.994 23.412C180.487 23.2266 180.21 22.9447 179.925 22.6703C179.656 22.3811 179.418 22.0918 179.203 21.7803C178.772 21.1647 178.411 20.5121 178.149 19.8223C178.687 20.3489 179.18 20.8903 179.695 21.4095C179.956 21.6616 180.202 21.9212 180.471 22.1437C180.725 22.3588 181.025 22.5813 181.233 22.6332L181.856 22.7741L181.448 23.2859C181.033 23.8125 180.571 24.302 179.933 24.658C179.856 24.7025 179.764 24.6728 179.718 24.606C179.695 24.5541 179.695 24.5096 179.702 24.4725Z" fill="#444359"/>
<path d="M181.956 26.831C181.648 27.4392 181.125 27.9658 180.448 28.2847C179.779 28.6184 178.949 28.6852 178.21 28.4775C177.457 28.2773 176.872 27.8026 176.373 27.3131C176.15 27.0461 175.926 26.7717 175.742 26.4899C175.58 26.1858 175.411 25.8891 175.288 25.5776C175.573 25.7853 175.819 26.0078 176.065 26.2303L176.826 26.8384C177.365 27.1796 177.872 27.5504 178.457 27.6839C179.018 27.8545 179.618 27.8471 180.21 27.6914C180.794 27.5282 181.379 27.2093 181.956 26.831Z" fill="#444359"/>
<path d="M173.904 17.1375C174.204 17.9978 174.373 18.8878 174.312 19.8445C174.273 20.3118 174.158 20.8235 173.796 21.276C173.427 21.7358 172.804 21.936 172.258 21.9212C171.697 21.9138 171.143 21.6765 170.767 21.3427C170.374 21.009 170.067 20.6233 169.836 20.2154C169.375 19.3921 169.082 18.5318 168.936 17.627C168.913 17.4861 169.013 17.3526 169.159 17.3229C169.298 17.3006 169.421 17.3822 169.459 17.5009L169.467 17.5157C169.728 18.3167 170.074 19.1251 170.52 19.8223C170.966 20.4972 171.574 21.1202 172.289 21.098C172.643 21.1128 172.974 21.0238 173.174 20.779C173.397 20.5417 173.504 20.156 173.566 19.763C173.681 18.9694 173.604 18.0942 173.466 17.2561V17.2413C173.443 17.1226 173.535 17.004 173.658 16.9891C173.758 16.9743 173.866 17.0411 173.904 17.1375Z" fill="#444359"/>
<path d="M185.07 15.4539C185.324 16.1807 185.462 16.9224 185.447 17.716C185.439 18.1091 185.362 18.5392 185.101 18.9471C184.847 19.3773 184.278 19.6443 183.786 19.6221C183.271 19.6146 182.802 19.3551 182.502 19.051C182.194 18.7395 181.956 18.4057 181.779 18.0497C181.433 17.3377 181.217 16.6109 181.11 15.847C181.087 15.7061 181.194 15.5726 181.348 15.5503C181.479 15.5355 181.602 15.6097 181.64 15.7283L181.648 15.7432C181.871 16.4107 182.14 17.093 182.486 17.6863C182.832 18.2648 183.301 18.8211 183.817 18.7914C184.078 18.7988 184.286 18.7246 184.424 18.517C184.578 18.3093 184.655 17.9904 184.701 17.6566C184.778 16.9892 184.716 16.2549 184.632 15.5577V15.5429C184.616 15.4242 184.709 15.313 184.832 15.2907C184.932 15.2907 185.039 15.3575 185.07 15.4539Z" fill="#444359"/>
<path d="M193.375 53.8498C193.306 49.3257 178.095 45.7064 178.095 45.7064C177.142 46.7225 175.504 48.4357 168.606 48.4357C162.007 48.4357 159.37 46.7892 158.339 45.7064H151.81C150.357 45.7064 149.027 46.5074 148.419 47.783C135.338 75.3804 142.69 106.204 145.704 121.356C145.981 122.75 173.281 121.809 185.593 122.75C188.254 122.966 193.637 70.2925 193.375 53.8498Z" fill="#FEE6C6"/>
<path d="M161.608 92.8762C162.961 82.3298 164.614 76.0034 165.883 78.08C167.006 79.9193 166.383 89.1456 164.699 98.0456C164.707 98.0456 161.031 97.393 161.608 92.8762Z" fill="#FEBBA0"/>
<path d="M170.543 92.8762C169.19 82.3298 167.537 76.0034 166.268 78.08C165.145 79.9193 165.768 89.1456 167.452 98.0456C167.444 98.0456 171.12 97.393 170.543 92.8762Z" fill="#FEBBA0"/>
<path d="M215.623 90.2582H198.435L201.165 107.094L169.974 92.4164C169.867 91.2891 169.721 89.8947 169.544 88.4188C168.367 88.4188 167.183 88.4188 166.006 88.404C166.014 89.6871 166.037 90.5548 166.037 90.5548C166.037 90.5548 165.429 98.2978 166.821 100.879C169.467 105.789 196.528 121.601 204.042 123.477C204.511 123.596 204.98 123.685 205.449 123.744C212.701 124.731 217.507 120.807 217.453 113.747L215.623 90.2582Z" fill="#FEBBA0"/>
<path d="M162.3 88.3447C162.03 90.006 161.792 91.608 161.607 92.8762L131.316 106.404L132.593 90.2656H115.405L113.583 113.769C113.537 120.83 118.343 124.746 125.587 123.767C126.056 123.7 126.525 123.611 126.994 123.5C134.508 121.623 159.677 108.503 165.053 100.849C166.645 98.587 165.891 90.9702 165.891 90.9702C165.891 90.9702 165.891 89.917 165.86 88.4188C164.676 88.3966 163.492 88.3743 162.3 88.3447Z" fill="#FEBBA0"/>
<path d="M136.992 99.4697C143.713 80.2977 143.659 80.2829 151.91 45.7139C146.389 46.0773 145.82 45.2096 141.467 47.3901C128.409 53.9316 116.113 75.4176 112.491 99.4697H136.992Z" fill="#FEE6C6"/>
<path d="M196.836 97.5784C192.883 83.9985 178.095 45.7138 178.095 45.7138C192.883 45.2317 213.062 63.8252 217.891 95.0938L196.836 97.5784Z" fill="#FEE6C6"/>
<path d="M193.383 67.5929L190.269 92.2755" stroke="#EED2AD" stroke-width="1.5925" stroke-miterlimit="10" stroke-linecap="round"/>
<path d="M139.822 71.6424L142.298 98.0456" stroke="#EED2AD" stroke-width="1.5925" stroke-miterlimit="10" stroke-linecap="round"/>
<path d="M58.1246 166.872L0 191.347H330.675L274.151 166.872H58.1246Z" fill="#D1DDBF"/>
</svg>
