<?xml version="1.0" encoding="UTF-8"?>
<svg version="1.1" xmlns="http://www.w3.org/2000/svg" width="512" height="512">
<path d="M0 0 C9.38153878 8.052879 18.33065043 16.70382325 26.125 26.3125 C29.64856666 25.70433992 32.700821 24.73681065 36 23.375 C49.7928314 18.29538198 66.42153068 17.36331295 80.125 23.3125 C83.3125 25.1875 83.3125 25.1875 85.125 28.3125 C85.70902086 37.35833413 83.20830021 46.57312114 81.125 55.3125 C81.66914551 55.13074219 82.21329102 54.94898438 82.77392578 54.76171875 C85.26299797 53.93608562 87.75635569 53.12421413 90.25 52.3125 C91.53390625 51.88324219 91.53390625 51.88324219 92.84375 51.4453125 C97.36741839 49.98381964 101.31156781 48.77685892 106.125 49.3125 C109 50.875 109 50.875 111.125 53.3125 C111.92996226 57.65929619 111.63178004 59.56776234 109.13671875 63.234375 C105.83509948 67.00647501 101.75393335 68.99842807 97.3125 71.1875 C96.52423828 71.5896875 95.73597656 71.991875 94.92382812 72.40625 C92.99703041 73.3871652 91.06183538 74.35155631 89.125 75.3125 C93.04140962 78.57742274 97.13812695 81.34384392 101.4375 84.0625 C102.08267578 84.47371094 102.72785156 84.88492188 103.39257812 85.30859375 C104.96841957 86.31246311 106.54648267 87.31284356 108.125 88.3125 C106.66809261 104.2297568 102.0760112 118.22540794 90.26953125 129.60546875 C85.91202 133.07401596 80.99597169 135.64481007 76.125 138.3125 C76.19501221 139.2931543 76.26502441 140.27380859 76.3371582 141.28417969 C77.06762972 152.13143649 77.311269 162.94249685 77.31030273 173.81298828 C77.31248686 176.54605769 77.33072898 179.27872019 77.34960938 182.01171875 C77.40639066 199.24029864 76.27241026 216.27524047 72.5 233.125 C72.24202637 234.29659668 71.98405273 235.46819336 71.71826172 236.67529297 C67.54062043 254.93614508 61.35225068 272.48897655 53.125 289.3125 C52.77856445 290.0245459 52.43212891 290.7365918 52.07519531 291.47021484 C40.59040421 314.78129358 24.26143283 336.74502448 4.125 353.3125 C3.2690625 354.05628906 2.413125 354.80007813 1.53125 355.56640625 C-48.1235252 398.21345108 -114.46660286 415.30458019 -179.02282715 411.17510986 C-220.34945842 407.91042097 -261.39193679 394.05445295 -294.875 369.3125 C-295.44686035 368.89323242 -296.0187207 368.47396484 -296.60791016 368.04199219 C-306.34521768 360.83178005 -315.16135385 352.71354898 -323.875 344.3125 C-324.74253906 343.48621094 -325.61007812 342.65992188 -326.50390625 341.80859375 C-342.25473606 326.4960479 -354.91929146 307.81000359 -364.875 288.3125 C-365.22900879 287.62365723 -365.58301758 286.93481445 -365.94775391 286.22509766 C-378.79716799 260.91820375 -386.65133101 233.47967749 -389.875 205.3125 C-389.9692627 204.52713867 -390.06352539 203.74177734 -390.16064453 202.93261719 C-394.37649523 163.36847987 -389.58544965 122.29631028 -374.875 85.3125 C-374.57899902 84.56629395 -374.28299805 83.82008789 -373.97802734 83.05126953 C-363.71618837 57.67664124 -348.71792531 35.08517491 -329.875 15.3125 C-328.72138403 13.96495721 -327.57473208 12.61139802 -326.4375 11.25 C-262.21908068 -62.38104816 -149.50981787 -75.70877392 0 0 Z " fill="#FEFDFD" transform="translate(395.875,79.6875)"/>
<path d="M0 0 C9.87986334 8.49473313 19.76831389 17.49384395 27.125 28.3125 C26.48433594 28.74820313 25.84367187 29.18390625 25.18359375 29.6328125 C9.69982868 40.2937655 0.92671498 52.91592458 -7.875 69.3125 C-8.535 69.3125 -9.195 69.3125 -9.875 69.3125 C-11.29144115 67.56964852 -12.63234466 65.76517785 -13.9375 63.9375 C-18.23738698 58.0475416 -22.85260687 52.60838979 -27.875 47.3125 C-28.71804688 46.41660156 -29.56109375 45.52070312 -30.4296875 44.59765625 C-46.21113513 28.29016037 -65.17445907 17.27516264 -85.875 8.3125 C-86.82246094 7.89508545 -86.82246094 7.89508545 -87.7890625 7.46923828 C-105.33174005 -0.13228282 -124.99131787 -3.70237435 -144.0625 -3.9609375 C-145.34098312 -3.97966164 -145.34098312 -3.97966164 -146.64529419 -3.99876404 C-165.66787347 -4.22354393 -183.43400905 -3.88209341 -201.875 1.3125 C-202.61137695 1.50473145 -203.34775391 1.69696289 -204.10644531 1.89501953 C-248.67912703 13.55393277 -288.68926211 43.44469283 -312.046875 83.09375 C-312.65015625 84.1559375 -313.2534375 85.218125 -313.875 86.3125 C-314.36709961 87.15748047 -314.36709961 87.15748047 -314.86914062 88.01953125 C-320.8454794 98.3267159 -325.11120482 109.02361698 -328.875 120.3125 C-329.2771875 121.51777344 -329.679375 122.72304687 -330.09375 123.96484375 C-332.84031956 132.88079116 -334.25079255 141.91073221 -335.55029297 151.12451172 C-335.82816854 152.99693341 -336.16059885 154.86111983 -336.50390625 156.72265625 C-343.74346596 197.57807364 -332.60140807 244.36359539 -309 278.3828125 C-299.22263386 291.86263715 -289.09039049 303.99991205 -275.875 314.3125 C-274.69164062 315.29476562 -274.69164062 315.29476562 -273.484375 316.296875 C-259.79700178 327.62748197 -244.56252744 337.1284375 -227.875 343.3125 C-226.70582031 343.77398437 -225.53664062 344.23546875 -224.33203125 344.7109375 C-210.49679694 350.13327707 -196.62429304 354.35572621 -181.81640625 355.953125 C-178.875 356.3125 -178.875 356.3125 -175.875 357.3125 C-125.15365719 360.81931817 -75.07970929 344.6851913 -36.56640625 311.49609375 C-10.94367132 288.85498639 8.12435177 257.62801981 16.125 224.3125 C16.38667969 223.28640625 16.64835937 222.2603125 16.91796875 221.203125 C17.72292816 217.91790996 18.43456207 214.62363245 19.125 211.3125 C19.40601563 210.05953125 19.68703125 208.8065625 19.9765625 207.515625 C24.76358892 184.43286408 22.2816621 160.44736308 19.125 137.3125 C19.79329834 137.43367187 20.46159668 137.55484375 21.15014648 137.6796875 C39.96347593 141.03661683 56.39813401 143.11757415 75.125 138.3125 C76.83719693 150.18087186 77.44114845 161.82605647 77.38574219 173.81298828 C77.37506397 176.54612684 77.38568654 179.27860045 77.3984375 182.01171875 C77.41407145 199.22942514 76.26970607 216.28731894 72.5 233.125 C72.24202637 234.29659668 71.98405273 235.46819336 71.71826172 236.67529297 C67.54062043 254.93614508 61.35225068 272.48897655 53.125 289.3125 C52.77856445 290.0245459 52.43212891 290.7365918 52.07519531 291.47021484 C40.59040421 314.78129358 24.26143283 336.74502448 4.125 353.3125 C3.2690625 354.05628906 2.413125 354.80007813 1.53125 355.56640625 C-48.1235252 398.21345108 -114.46660286 415.30458019 -179.02282715 411.17510986 C-220.34945842 407.91042097 -261.39193679 394.05445295 -294.875 369.3125 C-295.44686035 368.89323242 -296.0187207 368.47396484 -296.60791016 368.04199219 C-306.34521768 360.83178005 -315.16135385 352.71354898 -323.875 344.3125 C-324.74253906 343.48621094 -325.61007812 342.65992188 -326.50390625 341.80859375 C-342.25473606 326.4960479 -354.91929146 307.81000359 -364.875 288.3125 C-365.22900879 287.62365723 -365.58301758 286.93481445 -365.94775391 286.22509766 C-378.79716799 260.91820375 -386.65133101 233.47967749 -389.875 205.3125 C-389.9692627 204.52713867 -390.06352539 203.74177734 -390.16064453 202.93261719 C-394.37649523 163.36847987 -389.58544965 122.29631028 -374.875 85.3125 C-374.57899902 84.56629395 -374.28299805 83.82008789 -373.97802734 83.05126953 C-363.71618837 57.67664124 -348.71792531 35.08517491 -329.875 15.3125 C-328.72138403 13.96495721 -327.57473208 12.61139802 -326.4375 11.25 C-262.21908068 -62.38104816 -149.50981787 -75.70877392 0 0 Z " fill="#FE2A23" transform="translate(395.875,79.6875)"/>
<path d="M0 0 C2.71623844 0.00313598 5.43135821 -0.02028627 8.14746094 -0.0456543 C53.34589093 -0.20951227 95.77451661 16.96097758 128.24902344 48.31567383 C129.63541016 49.60731445 129.63541016 49.60731445 131.04980469 50.92504883 C136.35092497 55.9937296 141.08963079 61.32133472 145.56152344 67.12817383 C146.30994507 68.06161621 146.30994507 68.06161621 147.07348633 69.01391602 C148.42480469 70.83520508 148.42480469 70.83520508 150.24902344 74.31567383 C149.78417969 77.22973633 149.78417969 77.22973633 148.24902344 80.31567383 C147.64416677 81.66967582 147.0428686 83.02527072 146.44433594 84.38208008 C145.75523997 85.88124183 145.065095 87.37992175 144.37402344 88.87817383 C141.38768199 95.41217398 139.02129909 101.71812646 137.33105469 108.71411133 C135.61403468 112.84239771 132.56533754 114.64146417 128.68652344 116.62817383 C125.91816349 117.4089933 124.89048542 117.38349889 122.24902344 116.31567383 C120.82714844 114.41723633 120.82714844 114.41723633 119.49902344 111.94067383 C101.59661258 80.54465479 70.92608486 59.81332102 36.55029297 49.91333008 C29.87830882 48.1805678 23.07517443 47.20991386 16.24902344 46.31567383 C15.35183594 46.18418945 14.45464844 46.05270508 13.53027344 45.91723633 C11.09751489 45.60897583 8.69868368 45.43620704 6.24902344 45.31567383 C4.99734375 45.2512207 3.74566406 45.18676758 2.45605469 45.12036133 C-32.71850471 43.9164403 -65.94142574 57.21109568 -91.95019531 80.63012695 C-100.21009552 88.36146521 -107.75864198 96.69284825 -113.75097656 106.31567383 C-114.12287109 106.89591309 -114.49476562 107.47615234 -114.87792969 108.07397461 C-134.87189223 139.43534454 -142.55289173 177.14870465 -134.50097656 213.75317383 C-133.66688079 217.30029451 -132.75059217 220.81182833 -131.75097656 224.31567383 C-131.40550781 225.53899414 -131.06003906 226.76231445 -130.70410156 228.02270508 C-129.82127577 230.84123498 -128.8360461 233.56961322 -127.75097656 236.31567383 C-127.21730469 237.74266602 -127.21730469 237.74266602 -126.67285156 239.19848633 C-121.41150767 252.63245107 -113.94046932 264.28004697 -104.75097656 275.31567383 C-104.32977539 275.8287207 -103.90857422 276.34176758 -103.47460938 276.87036133 C-88.23198836 295.22205783 -66.45320488 307.66943887 -43.81347656 314.56567383 C-43.05244629 314.79963867 -42.29141602 315.03360352 -41.50732422 315.2746582 C-26.64041998 319.59395026 -12.52182224 320.85744243 2.87402344 320.75317383 C3.79634766 320.75079712 4.71867188 320.74842041 5.66894531 320.74597168 C42.58745668 320.59705506 73.4848902 309.05049091 100.56152344 283.44067383 C116.35958952 267.25784109 126.70494422 248.78402004 133.24902344 227.31567383 C133.60738281 226.28442383 133.96574219 225.25317383 134.33496094 224.19067383 C143.17512665 198.13544856 142.36111855 168.99165633 134.01855469 142.93286133 C133.24902344 140.31567383 133.24902344 140.31567383 133.24902344 137.31567383 C136.81756817 134.02060636 141.38083144 130.31051521 146.42089844 130.31958008 C148.81286545 131.1308092 150.98135713 132.20026337 153.24902344 133.31567383 C155.19763214 134.08656939 157.15954458 134.81299163 159.12670898 135.53515625 C160.5396266 136.05478096 161.94873228 136.58489251 163.35375977 137.12548828 C167.08303822 138.559282 170.74208647 139.72333031 174.62402344 140.69067383 C175.82027344 141.22692383 177.01652344 141.76317383 178.24902344 142.31567383 C191.53074026 183.55181491 179.16303615 232.89980003 160.24902344 270.31567383 C137.25468985 312.49945726 97.98821315 341.85218506 52.49462891 356.18334961 C33.95800111 361.55983384 14.55677076 363.5442416 -4.68847656 363.62817383 C-6.27728638 363.63651245 -6.27728638 363.63651245 -7.89819336 363.64501953 C-13.61833973 363.59175593 -18.92782318 363.06818859 -24.51000977 361.81738281 C-26.45219949 361.38256422 -28.41760218 361.05403153 -30.38378906 360.74536133 C-38.95175599 359.38445383 -47.01767452 357.11507853 -55.25097656 354.37817383 C-56.26562988 354.04221191 -57.2802832 353.70625 -58.32568359 353.36010742 C-63.39242086 351.63047143 -68.19556276 349.73908908 -72.93579102 347.24951172 C-75.80154146 345.77520164 -78.78760358 344.57941555 -81.75097656 343.31567383 C-97.14318431 335.98948819 -111.07980182 326.2440532 -123.43847656 314.50708008 C-125.52149868 312.53313513 -127.66484331 310.70494993 -129.87597656 308.87817383 C-156.18238348 285.95401923 -172.77711039 248.25705638 -177.75097656 214.31567383 C-177.95464844 213.11813477 -178.15832031 211.9205957 -178.36816406 210.68676758 C-183.15818496 179.22354811 -178.70104008 146.07128121 -167.75097656 116.31567383 C-167.41839844 115.38368164 -167.08582031 114.45168945 -166.74316406 113.49145508 C-157.89613678 90.5219509 -143.68601222 70.92380311 -126.75097656 53.31567383 C-126.13609375 52.63762695 -125.52121094 51.95958008 -124.88769531 51.26098633 C-100.82362477 25.54284441 -63.85861565 8.9905851 -29.75097656 2.31567383 C-28.97882813 2.14575928 -28.20667969 1.97584473 -27.41113281 1.80078125 C-18.29589072 -0.0015361 -9.25405532 -0.02223741 0 0 Z " fill="#FEFBFC" transform="translate(236.7509765625,74.684326171875)"/>
<path d="M0 0 C1.23363281 0.19335938 2.46726562 0.38671875 3.73828125 0.5859375 C36.14057255 6.44957188 67.75181233 27.47340389 86.8125 54.125 C96 67.83967391 96 67.83967391 96 71 C92.12275647 72.88408056 88.23114209 74.73330005 84.32397461 76.55419922 C83.00202177 77.175785 81.68412642 77.80608818 80.37084961 78.44580078 C71.81885638 82.60270249 63.71713991 85.94324838 54 84 C51.18359375 81.9453125 51.18359375 81.9453125 49.4375 79.125 C36.64910414 61.01198113 13.86865594 50.26837002 -7.6328125 46.47265625 C-34.88992115 43.04764522 -60.98904048 48.19391125 -83 65 C-101.47519059 79.86633412 -112.76220397 100.54453197 -116 124 C-116.28775029 128.2127196 -116.33427027 132.40343306 -116.3125 136.625 C-116.30686035 137.77145996 -116.3012207 138.91791992 -116.29541016 140.09912109 C-115.95281052 164.15911365 -108.24705328 186.0149169 -91.55859375 203.62890625 C-78.56609728 215.66928084 -63.1616519 222.9583802 -46 227 C-45.08605469 227.22558594 -44.17210937 227.45117188 -43.23046875 227.68359375 C-17.2046138 233.08237625 10.65744821 227.61352321 32.7734375 213.19140625 C52.38508794 199.54015938 63.46516054 180.22881796 68 157 C68.77133587 152.27315962 69.11893461 147.76028633 69.09765625 142.97265625 C69.09443359 141.68681641 69.09121094 140.40097656 69.08789062 139.07617188 C69.07953802 137.73828055 69.07107311 136.40038993 69.0625 135.0625 C69.05747659 133.69726726 69.05291517 132.33203274 69.04882812 130.96679688 C69.03708851 127.64448543 69.02066679 124.32226592 69 121 C69.94875 120.566875 70.8975 120.13375 71.875 119.6875 C75.20041937 118.20697799 75.20041937 118.20697799 77 115 C77.256604 114.03763428 77.51320801 113.07526855 77.77758789 112.08374023 C79.32754549 108.1737114 81.09538292 106.99829645 84.55859375 104.66015625 C85.10354996 104.2889415 85.64850616 103.91772675 86.2099762 103.53526306 C87.35725963 102.75894559 88.50981764 101.99037226 89.66723633 101.22924805 C91.44139999 100.05992959 93.19466898 98.86344853 94.94726562 97.66210938 C101.23779277 93.43406858 101.23779277 93.43406858 104 92 C104.99 92.33 105.98 92.66 107 93 C119.67167567 121.88396661 115.3077469 158.47468732 104.84765625 187.16015625 C103.65087167 190.15413249 102.35682167 193.07504837 101 196 C100.72317383 196.60666504 100.44634766 197.21333008 100.16113281 197.83837891 C93.06255915 213.25955055 83.73336586 225.80901457 72 238 C71.43152344 238.63164062 70.86304688 239.26328125 70.27734375 239.9140625 C51.12132908 260.58884048 19.99293816 273.0485125 -7.79785156 274.23632812 C-13.23983657 274.41916693 -18.68034058 274.47091117 -24.125 274.5 C-25.00607422 274.51035278 -25.88714844 274.52070557 -26.79492188 274.53137207 C-43.58807421 274.68666191 -59.76978715 272.32331275 -75.6875 266.8125 C-76.54996338 266.51770752 -77.41242676 266.22291504 -78.30102539 265.91918945 C-109.84066583 254.70915984 -135.22426274 231.58232718 -150.5546875 202 C-151.789681 199.36125613 -152.91058199 196.70175666 -154 194 C-154.40605469 193.07960938 -154.81210938 192.15921875 -155.23046875 191.2109375 C-166.63585866 164.04856277 -170.32167018 127.3381261 -161 99 C-160.58935303 97.73808838 -160.58935303 97.73808838 -160.17041016 96.45068359 C-153.65505289 77.00348985 -144.16057043 59.45511206 -130.171875 44.36328125 C-128.28735066 42.31267473 -126.51860189 40.21196417 -124.75 38.0625 C-93.38771399 2.57546889 -44.86781371 -7.67561766 0 0 Z " fill="#FE2B24" transform="translate(264,122)"/>
<path d="M0 0 C4.78242627 8.24556253 -0.09702784 21.35553504 -2.1875 30.125 C-1.64335449 29.94324219 -1.09920898 29.76148438 -0.53857422 29.57421875 C1.95049797 28.74858562 4.44385569 27.93671413 6.9375 27.125 C7.7934375 26.83882812 8.649375 26.55265625 9.53125 26.2578125 C14.05491839 24.79631964 17.99906781 23.58935892 22.8125 24.125 C25.6875 25.6875 25.6875 25.6875 27.8125 28.125 C28.61746226 32.47179619 28.31928004 34.38026234 25.82421875 38.046875 C22.52259948 41.81897501 18.44143335 43.81092807 14 46 C12.81760742 46.60328125 12.81760742 46.60328125 11.61132812 47.21875 C9.68453041 48.1996652 7.74933538 49.16405631 5.8125 50.125 C9.72890962 53.38992274 13.82562695 56.15634392 18.125 58.875 C18.77017578 59.28621094 19.41535156 59.69742188 20.08007812 60.12109375 C21.65591957 61.12496311 23.23398267 62.12534356 24.8125 63.125 C23.36200091 78.97224377 18.82266508 93.21232282 6.8984375 104.43359375 C-7.37973285 116.01121129 -23.73065791 118.59406624 -41.453125 116.90966797 C-58.44750218 115.00574859 -75.317872 110.48254154 -90.77197266 103.13378906 C-93.84445585 101.73895721 -95.6210476 100.98598347 -98.95703125 101.8046875 C-100.79876116 102.89488839 -102.59423604 104.06282403 -104.375 105.25 C-107.1875 107.125 -107.1875 107.125 -109.1875 107.125 C-109.1875 107.785 -109.1875 108.445 -109.1875 109.125 C-110.97140207 110.51873847 -112.82701866 111.82093405 -114.70703125 113.08203125 C-115.28023605 113.4668718 -115.85344086 113.85171234 -116.4440155 114.24821472 C-117.66667129 115.06614868 -118.89171499 115.88052234 -120.11889648 116.69165039 C-121.96118082 117.91179017 -123.79242113 119.1472259 -125.62304688 120.38476562 C-146.47930863 134.34173361 -146.47930863 134.34173361 -158.1875 133.125 C-162.26470331 131.5497169 -164.44664098 129.12133808 -166.4453125 125.21484375 C-167.89942906 121.12035765 -168.20032277 117.3598227 -167.1875 113.125 C-164.04725611 108.31115908 -159.5171384 105.18417847 -154.1875 103.125 C-153.1975 103.125 -152.2075 103.125 -151.1875 103.125 C-151.1875 102.465 -151.1875 101.805 -151.1875 101.125 C-146.8142319 99.20232968 -142.44000945 97.28185225 -138.06494141 95.36328125 C-136.58096201 94.71217041 -135.09723167 94.06049161 -133.61376953 93.40820312 C-131.46454174 92.4632965 -129.31456037 91.5201373 -127.1640625 90.578125 C-126.46831116 90.27314087 -125.77255981 89.96815674 -125.0557251 89.65393066 C-120.41007368 87.62843162 -115.73305564 85.71772243 -110.98583984 83.94042969 C-108.99087572 83.16303278 -108.99087572 83.16303278 -107.1875 81.125 C-106.59969816 79.36370888 -106.02035321 77.59903615 -105.48925781 75.81982422 C-97.46174228 49.04406352 -82.72850137 16.94004411 -57.203125 2.84765625 C-55.80733504 2.11747604 -54.40627901 1.39726904 -53 0.6875 C-52.34717041 0.3575 -51.69434082 0.0275 -51.02172852 -0.3125 C-35.83545266 -7.62179124 -14.81245507 -8.71320886 0 0 Z " fill="#006CA9" transform="translate(479.1875,104.875)"/>
<path d="M0 0 C6.15396674 3.71417884 13.5030137 8.26294736 15.8671875 15.35546875 C14.5546875 17.54296875 14.5546875 17.54296875 12.8671875 19.35546875 C12.2071875 19.35546875 11.5471875 19.35546875 10.8671875 19.35546875 C10.8671875 20.01546875 10.8671875 20.67546875 10.8671875 21.35546875 C9.51753906 22.01289063 9.51753906 22.01289063 8.140625 22.68359375 C-0.28934487 26.82502263 -8.61486063 31.14939146 -16.8828125 35.60546875 C-17.83494629 36.11239258 -18.78708008 36.61931641 -19.76806641 37.14160156 C-20.66702637 37.62983398 -21.56598633 38.11806641 -22.4921875 38.62109375 C-23.69053223 39.26739746 -23.69053223 39.26739746 -24.91308594 39.92675781 C-27.35963293 41.50146008 -29.21518105 43.17005993 -31.1328125 45.35546875 C-31.61203609 47.71071536 -31.61203609 47.71071536 -31.3828125 50.10546875 C-31.32867187 51.30429687 -31.32867187 51.30429687 -31.2734375 52.52734375 C-31.22703125 53.130625 -31.180625 53.73390625 -31.1328125 54.35546875 C-20.04290515 56.88474586 -9.81674639 51.5732204 0.32421875 47.39453125 C4.48464671 45.69457144 8.68910704 44.10932656 12.88671875 42.50390625 C14.77431922 41.77657396 16.64930717 41.01481218 18.50390625 40.20703125 C20.8671875 39.35546875 20.8671875 39.35546875 24.8671875 39.35546875 C25.49290828 53.72387183 23.23979254 66.57660756 13.7578125 77.8671875 C3.88789149 88.16253614 -8.71888145 94.51227992 -23.1328125 94.85546875 C-40.54908388 94.10849549 -55.08568145 89.26464854 -67.1328125 76.35546875 C-74.90512513 67.07993962 -78.98567905 55.9916723 -78.48828125 43.90625 C-76.82260235 27.26776518 -71.49341253 15.90142483 -59.1953125 4.5703125 C-53.80489298 0.1793666 -47.61164753 -2.26031996 -41.1328125 -4.64453125 C-40.18535156 -5.01191406 -39.23789063 -5.37929687 -38.26171875 -5.7578125 C-25.25464696 -9.44396143 -11.66392906 -6.12283558 0 0 Z " fill="#FB2C23" transform="translate(267.1328125,215.64453125)"/>
<path d="M0 0 C5.25586803 2.44258854 10.49286328 4.92212505 15.71875 7.42822266 C18.08657361 8.56245245 20.45631787 9.69204407 22.828125 10.81787109 C26.25196969 12.44569248 29.66500779 14.09472131 33.07293701 15.75558472 C34.44032049 16.41820913 35.81083131 17.07441868 37.18438721 17.72415161 C39.13428149 18.6481065 41.0716441 19.59456131 43.0078125 20.546875 C44.13848145 21.09182617 45.26915039 21.63677734 46.43408203 22.19824219 C49 24 49 24 49.99462891 26.43334961 C50.00080978 29.38696265 49.45004047 30.91551513 48.078125 33.51953125 C47.6351709 34.36918457 47.1922168 35.21883789 46.73583984 36.09423828 C46.00034912 37.43977783 46.00034912 37.43977783 45.25 38.8125 C44.75064941 39.74304199 44.25129883 40.67358398 43.73681641 41.63232422 C32.42245049 62.32743127 17.2718553 81.96662652 -1 97 C-1.8559375 97.74378906 -2.711875 98.48757813 -3.59375 99.25390625 C-28.91314554 121 -28.91314554 121 -37 121 C-38.4617157 119.35650635 -38.4617157 119.35650635 -40.00268555 117.02441406 C-40.58306076 116.15641174 -41.16343597 115.28840942 -41.76139832 114.394104 C-42.38025406 113.44420593 -42.9991098 112.49430786 -43.63671875 111.515625 C-44.27615921 110.54848572 -44.91559967 109.58134644 -45.57441711 108.5848999 C-46.92686668 106.53358849 -48.27406782 104.47880873 -49.61645508 102.42089844 C-51.67566915 99.26811377 -53.75538507 96.1296222 -55.83789062 92.9921875 C-57.1470893 91.00082515 -58.45507288 89.00866331 -59.76171875 87.015625 C-60.38664719 86.07382385 -61.01157562 85.13202271 -61.65544128 84.16168213 C-62.22636002 83.28107117 -62.79727875 82.40046021 -63.38549805 81.49316406 C-63.89163132 80.72039124 -64.39776459 79.94761841 -64.91923523 79.15142822 C-66 77 -66 77 -66 73 C-63.7265625 71.140625 -63.7265625 71.140625 -60.625 69.25 C-35.8678698 53.52980347 -17.57057165 31.79267466 -3.7421875 6.1953125 C-2 3 -2 3 0 0 Z " fill="#CC1934" transform="translate(401,336)"/>
<path d="M0 0 C0 0.66 0 1.32 0 2 C-0.99580078 2.45439453 -0.99580078 2.45439453 -2.01171875 2.91796875 C-9.43639044 6.2852479 -9.43639044 6.2852479 -15 12 C-15.94369459 16.99052903 -15.62577425 21.47561716 -13.25 26 C-10.74884521 29.51017348 -10.74884521 29.51017348 -7 31 C-1.08510387 31.60151486 2.63174469 30.62723603 7.921875 27.97265625 C9.94189888 27.02719394 11.82470935 26.46543381 14 26 C14.3125 28.1875 14.3125 28.1875 14 31 C11.35752899 34.22968679 9.26474248 36.52613972 5 37 C5.24121582 37.82504028 5.24121582 37.82504028 5.48730469 38.66674805 C8.38268863 51.8435025 6.6770481 68.14503985 3 81 C2.82307617 81.62551758 2.64615234 82.25103516 2.46386719 82.89550781 C-4.16737843 105.83572364 -18.1432001 123.39420006 -39 135 C-39.66 135 -40.32 135 -41 135 C-42.15405273 133.6015625 -42.15405273 133.6015625 -43.43359375 131.625 C-43.91272217 130.89410156 -44.39185059 130.16320312 -44.88549805 129.41015625 C-45.65373901 128.21712891 -45.65373901 128.21712891 -46.4375 127 C-47.51451489 125.35344001 -48.59266563 123.70762249 -49.671875 122.0625 C-50.22166016 121.22203125 -50.77144531 120.3815625 -51.33789062 119.515625 C-54.3571469 114.94593982 -57.48491693 110.45139214 -60.60913086 105.953125 C-63.90100319 101.19799362 -63.90100319 101.19799362 -65 99 C-63.88625 98.525625 -62.7725 98.05125 -61.625 97.5625 C-50.20030428 91.78938248 -42.97169609 82.04593452 -38.65356445 70.23657227 C-37.48142909 66.22539107 -37.16000569 62.15093954 -36.8125 58 C-36.73064453 57.12988281 -36.64878906 56.25976562 -36.56445312 55.36328125 C-36.36641309 53.24308794 -36.18179444 51.12164801 -36 49 C-42.18364968 50.75973497 -48.25696394 52.52066578 -54.0625 55.3125 C-59.322753 57.80297377 -64.70861547 59.80291714 -70.1875 61.75 C-71.03127197 62.05591064 -71.87504395 62.36182129 -72.74438477 62.67700195 C-85.05092929 66.98302357 -85.05092929 66.98302357 -90.4375 65.1875 C-92 64 -92 64 -93 62 C-93.375 58.6875 -93.375 58.6875 -93 55 C-89.79039381 51.2513427 -86.48526328 48.90798839 -82.140625 46.625 C-81.02429688 46.03203125 -79.90796875 45.4390625 -78.7578125 44.828125 C-77.60023438 44.22484375 -76.44265625 43.6215625 -75.25 43 C-72.96329885 41.79212625 -70.67683601 40.58380122 -68.390625 39.375 C-67.30072266 38.80394531 -66.21082031 38.23289063 -65.08789062 37.64453125 C-61.60922526 35.79188341 -58.19203793 33.84708717 -54.79589844 31.84765625 C-53 31 -53 31 -50 31 C-50 30.34 -50 29.68 -50 29 C-48.66666667 27.66666667 -47.33333333 26.33333333 -46 25 C-46 24.34 -46 23.68 -46 23 C-44.38517176 21.23378161 -42.74794953 19.62740129 -41 18 C-40.47664063 17.47148437 -39.95328125 16.94296875 -39.4140625 16.3984375 C-33.15392146 10.41166507 -25.71288065 6.76734765 -18 3 C-16.81470703 2.41992188 -16.81470703 2.41992188 -15.60546875 1.828125 C-10.45072241 -0.39754959 -5.49532448 -0.30404459 0 0 Z " fill="#C8C6C6" transform="translate(328,206)"/>
<path d="M0 0 C1.8125 2.625 1.8125 2.625 1.625 5.4375 C1.356875 6.159375 1.08875 6.88125 0.8125 7.625 C-1.0128125 7.686875 -1.0128125 7.686875 -2.875 7.75 C-3.55949219 7.77320312 -4.24398437 7.79640625 -4.94921875 7.8203125 C-7.1875 7.625 -7.1875 7.625 -9.390625 6.63671875 C-13.35591503 5.20234708 -17.0641202 5.28524657 -21.25 5.3125 C-22.51275757 5.31660889 -22.51275757 5.31660889 -23.80102539 5.32080078 C-31.19019441 5.44387108 -38.63098612 6.19600772 -45.25390625 9.7265625 C-47.1875 10.625 -47.1875 10.625 -51.1875 10.625 C-51.1875 11.285 -51.1875 11.945 -51.1875 12.625 C-52.61328125 13.9140625 -52.61328125 13.9140625 -54.5 15.25 C-55.11488281 15.69601563 -55.72976563 16.14203125 -56.36328125 16.6015625 C-58.1875 17.625 -58.1875 17.625 -61.1875 17.625 C-61.57421875 18.49898437 -61.57421875 18.49898437 -61.96875 19.390625 C-63.28584017 21.8052903 -64.73838384 23.44240177 -66.6875 25.375 C-67.2959375 25.98859375 -67.904375 26.6021875 -68.53125 27.234375 C-70.1875 28.625 -70.1875 28.625 -72.1875 28.625 C-72.29835938 29.20507812 -72.40921875 29.78515625 -72.5234375 30.3828125 C-73.26108682 32.87346374 -74.28741664 34.40402982 -75.8125 36.5 C-81.95970526 45.46959998 -86.34141847 55.48983236 -90.1875 65.625 C-90.93437991 67.50124503 -91.68433384 69.37626957 -92.4375 71.25 C-92.77265625 72.08789062 -93.1078125 72.92578125 -93.453125 73.7890625 C-93.69546875 74.39492187 -93.9378125 75.00078125 -94.1875 75.625 C-93.71183594 75.30789062 -93.23617187 74.99078125 -92.74609375 74.6640625 C-91.2040229 73.63601527 -89.65940926 72.61177906 -88.11328125 71.58984375 C-86.02666743 70.18855303 -83.96820447 68.76858194 -81.91796875 67.31640625 C-62.92945944 54.01575994 -34.86538051 39.0211507 -11.1875 40.625 C-8.1875 41.3125 -8.1875 41.3125 -6.1875 42.625 C-5.1875 44.9375 -5.1875 44.9375 -5.1875 47.625 C-6.5 50.4375 -6.5 50.4375 -8.1875 52.625 C-8.8475 52.625 -9.5075 52.625 -10.1875 52.625 C-10.1875 53.285 -10.1875 53.945 -10.1875 54.625 C-24.77171072 61.93879371 -24.77171072 61.93879371 -32.0188446 65.48931885 C-46.66234706 72.66397564 -61.07397253 79.97845123 -75.015625 88.45947266 C-75.92441406 89.00909668 -76.83320313 89.5587207 -77.76953125 90.125 C-78.55561768 90.6096875 -79.3417041 91.094375 -80.15161133 91.59375 C-82.1875 92.625 -82.1875 92.625 -85.1875 92.625 C-85.1875 93.285 -85.1875 93.945 -85.1875 94.625 C-86.47663487 95.29654933 -87.76890204 95.96208859 -89.0625 96.625 C-89.78179687 96.99625 -90.50109375 97.3675 -91.2421875 97.75 C-93.1875 98.625 -93.1875 98.625 -95.1875 98.625 C-95.5175 99.285 -95.8475 99.945 -96.1875 100.625 C-97.85416667 101.29166667 -99.52083333 101.95833333 -101.1875 102.625 C-102.239375 103.32625 -103.29125 104.0275 -104.375 104.75 C-107.1875 106.625 -107.1875 106.625 -109.1875 106.625 C-109.1875 107.285 -109.1875 107.945 -109.1875 108.625 C-110.97140207 110.01873847 -112.82701866 111.32093405 -114.70703125 112.58203125 C-115.28023605 112.9668718 -115.85344086 113.35171234 -116.4440155 113.74821472 C-117.66667129 114.56614868 -118.89171499 115.38052234 -120.11889648 116.19165039 C-121.96118082 117.41179017 -123.79242113 118.6472259 -125.62304688 119.88476562 C-146.47930863 133.84173361 -146.47930863 133.84173361 -158.1875 132.625 C-162.26470331 131.0497169 -164.44664098 128.62133808 -166.4453125 124.71484375 C-167.89942906 120.62035765 -168.20032277 116.8598227 -167.1875 112.625 C-164.04725611 107.81115908 -159.5171384 104.68417847 -154.1875 102.625 C-153.1975 102.625 -152.2075 102.625 -151.1875 102.625 C-151.1875 101.965 -151.1875 101.305 -151.1875 100.625 C-146.8142319 98.70232968 -142.44000945 96.78185225 -138.06494141 94.86328125 C-136.58096201 94.21217041 -135.09723167 93.56049161 -133.61376953 92.90820312 C-131.46454174 91.9632965 -129.31456037 91.0201373 -127.1640625 90.078125 C-126.46831116 89.77314087 -125.77255981 89.46815674 -125.0557251 89.15393066 C-120.41007368 87.12843162 -115.73305564 85.21772243 -110.98583984 83.44042969 C-108.99087572 82.66303278 -108.99087572 82.66303278 -107.1875 80.625 C-106.59969816 78.86370888 -106.02035321 77.09903615 -105.48925781 75.31982422 C-97.46174228 48.54406352 -82.72850137 16.44004411 -57.203125 2.34765625 C-55.80733504 1.61747604 -54.40627901 0.89726904 -53 0.1875 C-52.34717041 -0.1425 -51.69434082 -0.4725 -51.02172852 -0.8125 C-36.49351372 -7.80506052 -13.56748685 -10.10910785 0 0 Z " fill="#1F86FA" transform="translate(479.1875,105.375)"/>
<path d="M0 0 C0.495 0.99 0.495 0.99 1 2 C2.988126 2.70128415 4.99086116 3.36140344 7 4 C9.14390344 4.95665826 11.27232786 5.94852053 13.38671875 6.96875 C14.57201172 7.53980469 15.75730469 8.11085938 16.97851562 8.69921875 C17.58735596 8.99489746 18.19619629 9.29057617 18.82348633 9.59521484 C20.69073345 10.5015695 22.56094346 11.40157253 24.43164062 12.30078125 C33.59493583 16.72995722 33.59493583 16.72995722 37 19 C28.80863514 35.55137547 18.36037006 50.29691117 6 64 C5.236875 64.84691406 4.47375 65.69382812 3.6875 66.56640625 C-5.53083318 76.2674562 -17.12249119 85.69589188 -29 92 C-29.66 92 -30.32 92 -31 92 C-32.59115772 89.86761916 -34.05607673 87.73758079 -35.5 85.5078125 C-35.93634766 84.8466745 -36.37269531 84.1855365 -36.82226562 83.50436401 C-38.22141726 81.38214848 -39.61108867 79.25392865 -41 77.125 C-42.39045001 75.00427567 -43.78284569 72.88486678 -45.17773438 70.76705933 C-46.04656503 69.44682896 -46.91254216 68.12471545 -47.77539062 66.80056763 C-49.39138832 64.33652654 -50.91014782 62.08985218 -53 60 C-52.25169922 59.65001953 -52.25169922 59.65001953 -51.48828125 59.29296875 C-43.72127459 55.34671582 -37.42540382 49.78489679 -31 44 C-30.154375 43.25105469 -29.30875 42.50210938 -28.4375 41.73046875 C-16.06073178 30.10689202 -6.26120892 15.74717581 0 0 Z " fill="#C8C5C6" transform="translate(364,318)"/>
<path d="M0 0 C4.7749875 1.45381893 9.1476652 3.44193506 13.5859375 5.6953125 C14.63861313 6.22377274 14.63861313 6.22377274 15.71255493 6.76290894 C17.93529034 7.87983696 20.15516549 9.00231954 22.375 10.125 C23.88913684 10.88708856 25.40345796 11.64881112 26.91796875 12.41015625 C30.61412431 14.26921035 34.3077265 16.13324843 38 18 C32.63035048 34.36753959 22.64971883 46.62217375 11 59 C10.1028125 59.99386719 10.1028125 59.99386719 9.1875 61.0078125 C2.93401397 67.66561875 -4.57717646 72.74216666 -12 78 C-15.45546581 76.58346788 -16.93604844 75.0592593 -18.91796875 71.921875 C-19.44624268 71.09655273 -19.9745166 70.27123047 -20.51879883 69.42089844 C-21.34480591 68.09880371 -21.34480591 68.09880371 -22.1875 66.75 C-22.75686279 65.85571289 -23.32622559 64.96142578 -23.9128418 64.04003906 C-25.06649378 62.22704146 -26.21634263 60.41161802 -27.36230469 58.59375 C-29.26467643 55.58081061 -31.19184579 52.5845357 -33.12426758 49.59082031 C-34.75519267 47.06417654 -36.37759721 44.53212219 -38 42 C-35.07835177 38.85732874 -32.08247269 36.68466692 -28.4375 34.4375 C-14.93526062 25.52371955 -7.00308491 14.28373112 0 0 Z " fill="#CC1935" transform="translate(326,300)"/>
<path d="M0 0 C0 0.66 0 1.32 0 2 C-0.99580078 2.45439453 -0.99580078 2.45439453 -2.01171875 2.91796875 C-9.43639044 6.2852479 -9.43639044 6.2852479 -15 12 C-15.94369459 16.99052903 -15.62577425 21.47561716 -13.25 26 C-10.74884521 29.51017348 -10.74884521 29.51017348 -7 31 C-1.08510387 31.60151486 2.63174469 30.62723603 7.921875 27.97265625 C9.94189888 27.02719394 11.82470935 26.46543381 14 26 C14.3125 28.1875 14.3125 28.1875 14 31 C10.70242352 34.8259403 7.55053446 36.99313403 2.96484375 39.04296875 C1.82595703 39.55923828 0.68707031 40.07550781 -0.48632812 40.60742188 C-2.2565332 41.38956055 -2.2565332 41.38956055 -4.0625 42.1875 C-6.40765292 43.24326563 -8.75270913 44.29924611 -11.09765625 45.35546875 C-12.13414307 45.81590576 -13.17062988 46.27634277 -14.23852539 46.75073242 C-16.92390006 47.92201651 -16.92390006 47.92201651 -19.11328125 49.1640625 C-21.30707018 50.1360518 -22.70689292 50.16512059 -25.08984375 50.01953125 C-25.86755127 49.98690186 -26.64525879 49.95427246 -27.4465332 49.9206543 C-28.67956177 49.86711792 -28.67956177 49.86711792 -29.9375 49.8125 C-38.70041479 49.62418402 -45.00995198 51.33539151 -53 55 C-55.38779076 55.87639793 -57.78394744 56.73030223 -60.1875 57.5625 C-64.32730714 59.02685892 -68.42966657 60.53983879 -72.5 62.1875 C-73.29019531 62.50460937 -74.08039063 62.82171875 -74.89453125 63.1484375 C-76.66156724 63.86311996 -78.42497836 64.58675579 -80.1875 65.3125 C-84.41424584 66.34570454 -88.13325149 66.08391849 -91.9375 63.875 C-93.69937187 60.76581435 -93.48159369 58.49155423 -93 55 C-89.78054028 51.25921144 -86.48682364 48.90880832 -82.140625 46.625 C-81.02429688 46.03203125 -79.90796875 45.4390625 -78.7578125 44.828125 C-77.60023438 44.22484375 -76.44265625 43.6215625 -75.25 43 C-72.96329885 41.79212625 -70.67683601 40.58380122 -68.390625 39.375 C-67.30072266 38.80394531 -66.21082031 38.23289063 -65.08789062 37.64453125 C-61.60922526 35.79188341 -58.19203793 33.84708717 -54.79589844 31.84765625 C-53 31 -53 31 -50 31 C-50 30.34 -50 29.68 -50 29 C-48.66666667 27.66666667 -47.33333333 26.33333333 -46 25 C-46 24.34 -46 23.68 -46 23 C-44.38517176 21.23378161 -42.74794953 19.62740129 -41 18 C-40.47664063 17.47148437 -39.95328125 16.94296875 -39.4140625 16.3984375 C-33.15392146 10.41166507 -25.71288065 6.76734765 -18 3 C-16.81470703 2.41992188 -16.81470703 2.41992188 -15.60546875 1.828125 C-10.45072241 -0.39754959 -5.49532448 -0.30404459 0 0 Z " fill="#ACAEB3" transform="translate(328,206)"/>
<path d="M0 0 C0.05607422 1.24716797 0.05607422 1.24716797 0.11328125 2.51953125 C0.17902344 3.60621094 0.24476563 4.69289062 0.3125 5.8125 C0.37050781 6.89144531 0.42851562 7.97039062 0.48828125 9.08203125 C1.03557423 12.20285456 1.47822313 13.1704756 4 15 C6.10332891 15.71447643 6.10332891 15.71447643 8 16 C8 16.99 8 17.98 8 19 C6.3203125 20.38671875 6.3203125 20.38671875 4.125 21.6875 C3.40570313 22.12449219 2.68640625 22.56148437 1.9453125 23.01171875 C0 24 0 24 -2 24 C-2 24.66 -2 25.32 -2 26 C-3.78390207 27.39373847 -5.63951866 28.69593405 -7.51953125 29.95703125 C-8.09273605 30.3418718 -8.66594086 30.72671234 -9.2565155 31.12321472 C-10.47917129 31.94114868 -11.70421499 32.75552234 -12.93139648 33.56665039 C-14.77368082 34.78679017 -16.60492113 36.0222259 -18.43554688 37.25976562 C-39.29180863 51.21673361 -39.29180863 51.21673361 -51 50 C-55.07720331 48.4247169 -57.25914098 45.99633808 -59.2578125 42.08984375 C-60.71192906 37.99535765 -61.01282277 34.2348227 -60 30 C-56.85975611 25.18615908 -52.3296384 22.05917847 -47 20 C-46.01 20 -45.02 20 -44 20 C-44 19.34 -44 18.68 -44 18 C-39.6267319 16.07732968 -35.25250945 14.15685225 -30.87744141 12.23828125 C-29.39346201 11.58717041 -27.90973167 10.93549161 -26.42626953 10.28320312 C-3.03671396 0 -3.03671396 0 0 0 Z " fill="#036BA8" transform="translate(372,188)"/>
<path d="M0 0 C5.61556534 16.84669603 -0.13718714 39.01862686 -6 55 C-11.8863081 54.48231167 -16.45918489 52.03573528 -21.625 49.375 C-22.94709473 48.70428467 -22.94709473 48.70428467 -24.29589844 48.02001953 C-31.01061379 44.58392573 -37.57001602 40.94686008 -44 37 C-43.78537109 35.57494141 -43.78537109 35.57494141 -43.56640625 34.12109375 C-42.89881342 29.44794395 -42.41952741 24.75780407 -41.9375 20.0625 C-41.80118164 18.75055664 -41.80118164 18.75055664 -41.66210938 17.41210938 C-41.44020953 15.27486349 -41.21993728 13.13744873 -41 11 C-39.63681641 11.12181641 -39.63681641 11.12181641 -38.24609375 11.24609375 C-27.41218459 11.79056713 -20.41439975 9.15419072 -11 4 C-3.28818444 0 -3.28818444 0 0 0 Z " fill="#FEFCFC" transform="translate(333,244)"/>
<path d="M0 0 C0.62572078 14.36840308 -1.62739496 27.22113881 -11.109375 38.51171875 C-15.33232146 42.91668877 -20.1714811 47.82834628 -26 50 C-29.48621981 49.50017266 -29.97000666 49.03504894 -32.41015625 46.18359375 C-33.30580988 44.94314639 -34.18919865 43.69378414 -35.0625 42.4375 C-35.53276611 41.7779834 -36.00303223 41.1184668 -36.48754883 40.43896484 C-38.00477322 38.30152628 -39.50372359 36.15214582 -41 34 C-41.52239258 33.25411621 -42.04478516 32.50823242 -42.58300781 31.73974609 C-52 18.2831609 -52 18.2831609 -52 17 C-50.98164063 16.72027344 -49.96328125 16.44054687 -48.9140625 16.15234375 C-37.98713265 13.08257082 -27.51957514 9.24271515 -17 5 C-14.54483759 4.0122702 -12.08652721 3.03444531 -9.625 2.0625 C-8.62726563 1.66160156 -7.62953125 1.26070313 -6.6015625 0.84765625 C-4 0 -4 0 0 0 Z " fill="#CC1934" transform="translate(292,255)"/>
<path d="M0 0 C0.38558031 8.85406634 -0.43056454 16.51168642 -3 25 C-6.59747227 23.63358421 -9.92958192 22.0328614 -13.30078125 20.1796875 C-14.27724609 19.64472656 -15.25371094 19.10976563 -16.25976562 18.55859375 C-17.26716797 18.00300781 -18.27457031 17.44742187 -19.3125 16.875 C-20.33923828 16.31167969 -21.36597656 15.74835938 -22.42382812 15.16796875 C-24.95062051 13.78117107 -27.47594494 12.39177165 -30 11 C-26.99814562 8.99876374 -24.30753322 7.886252 -20.9375 6.625 C-15.9516384 4.74973732 -11.02049397 2.78951935 -6.12109375 0.69921875 C-4 0 -4 0 0 0 Z " fill="#FA2C23" transform="translate(292,255)"/>
</svg>
