<svg width="25" height="28" viewBox="0 0 25 28" fill="none" xmlns="http://www.w3.org/2000/svg">
<path d="M24.8438 14.057C24.8438 12.9263 24.7592 12.1012 24.5762 11.2456H12.6754V16.3488H19.6609C19.5201 17.6171 18.7596 19.527 17.0695 20.8104L17.0458 20.9812L20.8087 24.1437L21.0693 24.1719C23.4636 21.773 24.8438 18.2435 24.8438 14.057Z" fill="#4285F4"/>
<path d="M12.6755 27.5025C16.0978 27.5025 18.9708 26.2801 21.0694 24.1717L17.0696 20.8101C15.9992 21.6199 14.5626 22.1853 12.6755 22.1853C9.32353 22.1853 6.47863 19.7865 5.4645 16.4709L5.31585 16.4846L1.40322 19.7696L1.35205 19.924C3.43643 24.416 7.71792 27.5025 12.6755 27.5025Z" fill="#34A853"/>
<path d="M5.46446 16.471C5.19687 15.6153 5.04201 14.6985 5.04201 13.7512C5.04201 12.8039 5.19687 11.8871 5.45038 11.0315L5.44329 10.8493L1.48163 7.51144L1.35201 7.57833C0.492938 9.44243 0 11.5357 0 13.7512C0 15.9667 0.492938 18.0599 1.35201 19.924L5.46446 16.471Z" fill="#FBBC05"/>
<path d="M12.6758 5.31717C15.0559 5.31717 16.6615 6.43255 17.577 7.36465L21.1542 3.57536C18.9572 1.35986 16.0981 0 12.6758 0C7.71828 0 3.4368 3.0864 1.35242 7.57848L5.45079 11.0317C6.47899 7.71605 9.3239 5.31717 12.6758 5.31717Z" fill="#EB4335"/>
</svg>
